<svg xmlns="http://www.w3.org/2000/svg" viewBox="0 0 800 600" role="img" aria-labelledby="title desc">
  <title id="title">Project 4 placeholder</title>
  <desc id="desc">Abstract census and survey mapping placeholder.</desc>
  <defs>
    <linearGradient id="g4" x1="0" x2="1" y1="0" y2="1">
      <stop offset="0%" stop-color="#0d1728"/>
      <stop offset="100%" stop-color="#171f34"/>
    </linearGradient>
  </defs>
  <rect width="800" height="600" fill="url(#g4)"/>
  <g stroke="#ecedf8" stroke-width="4" opacity="0.75">
    <path d="M80 120 L720 120 M80 220 L720 220 M80 320 L720 320 M80 420 L720 420" fill="none"/>
    <path d="M120 80 L120 520 M280 80 L280 520 M440 80 L440 520 M600 80 L600 520" fill="none"/>
  </g>
  <circle cx="240" cy="250" r="52" fill="#8a7bff" opacity="0.85"/>
  <circle cx="470" cy="330" r="70" fill="#f3d56b" opacity="0.82"/>
  <circle cx="620" cy="180" r="44" fill="#d8d4ff" opacity="0.82"/>
  <path d="M140 430 L250 310 L380 370 L520 265 L690 390" fill="none" stroke="#f0f4ff" stroke-width="10" stroke-linecap="round" stroke-linejoin="round"/>
  <g fill="#f9fbff" font-family="Arial, sans-serif" font-size="30" font-weight="700">
    <text x="90" y="90">CENSUS</text>
  </g>
  <g fill="#dbe0f3" font-family="Arial, sans-serif" font-size="22">
    <text x="90" y="560">Field mapping</text>
  </g>
</svg>
